<svg width="1440" height="749" viewBox="0 0 1440 749" fill="none" xmlns="http://www.w3.org/2000/svg">
<g clip-path="url(#clip0_317_9383)">
<rect x="-1" width="1442" height="749" fill="#224F5A"/>
<path d="M938.807 334.139C958.578 271.996 1036.36 251.669 1085.34 295.846L1345.73 530.704C1399.21 578.939 1378.57 666.383 1309.44 684.449L943.946 779.965C874.819 798.031 812.118 732.366 833.704 664.514L938.807 334.139Z" fill="#3EE987" fill-opacity="0.07"/>
<path d="M671.43 283.99C691.2 221.846 768.979 201.52 817.959 245.697L1078.35 480.555C1131.83 528.79 1111.19 616.234 1042.06 634.299L676.569 729.816C607.442 747.881 544.74 682.217 566.326 614.364L671.43 283.99Z" fill="#3EE987" fill-opacity="0.07"/>
</g>
<defs>
<clipPath id="clip0_317_9383">
<rect width="1442" height="749" fill="white" transform="translate(-1)"/>
</clipPath>
</defs>
</svg>
