<svg width="68" height="54" viewBox="0 0 68 54" fill="none" xmlns="http://www.w3.org/2000/svg">
<path d="M15.2 -9.53674e-06C19.8667 -9.53674e-06 23.5333 1.79999 26.2 5.39999C28.8667 8.99999 30.2 13.6667 30.2 19.4C30.2 26.0667 28.4667 32.4667 25 38.6C21.5333 44.7333 16 49.6 8.4 53.2L6.85453e-07 45.4C5.46667 43.5333 9.86667 40.7333 13.2 37C16.5333 33.1333 18.6667 29.1333 19.6 25L18.8 24.6C18.2667 25 17.6 25.3333 16.8 25.6C16 25.8667 14.8 26 13.2 26C10.8 26 8.33333 25 5.8 23C3.4 20.8667 2.2 17.6667 2.2 13.4C2.2 9.8 3.46667 6.66666 6 4C8.53333 1.33333 11.6 -9.53674e-06 15.2 -9.53674e-06ZM52.8 -9.53674e-06C57.4667 -9.53674e-06 61.1333 1.79999 63.8 5.39999C66.4667 8.99999 67.8 13.6667 67.8 19.4C67.8 26.0667 66.0667 32.4667 62.6 38.6C59.1333 44.7333 53.6 49.6 46 53.2L37.6 45.4C43.0667 43.5333 47.4667 40.7333 50.8 37C54.1333 33.1333 56.2667 29.1333 57.2 25L56.4 24.6C55.8667 25 55.2 25.3333 54.4 25.6C53.6 25.8667 52.4 26 50.8 26C48.4 26 45.9333 25 43.4 23C41 20.8667 39.8 17.6667 39.8 13.4C39.8 9.8 41.0667 6.66666 43.6 4C46.1333 1.33333 49.2 -9.53674e-06 52.8 -9.53674e-06Z" fill="#EF7E2D"/>
</svg>
