<svg width="69" height="54" viewBox="0 0 69 54" fill="none" xmlns="http://www.w3.org/2000/svg">
<path d="M15.6 53.2C10.9333 53.2 7.26667 51.4 4.6 47.8C1.93333 44.2 0.600001 39.5333 0.600001 33.8C0.600001 27.1333 2.33333 20.7333 5.8 14.6C9.26667 8.46666 14.8 3.59999 22.4 -9.53674e-06L30.8 7.8C25.3333 9.66666 20.9333 12.5333 17.6 16.4C14.2667 20.1333 12.1333 24.0667 11.2 28.2L12 28.6C12.5333 28.2 13.2 27.8667 14 27.6C14.8 27.3333 16 27.2 17.6 27.2C20 27.2 22.4 28.2667 24.8 30.4C27.3333 32.4 28.6 35.5333 28.6 39.8C28.6 43.4 27.3333 46.5333 24.8 49.2C22.2667 51.8667 19.2 53.2 15.6 53.2ZM53.2 53.2C48.5333 53.2 44.8667 51.4 42.2 47.8C39.5333 44.2 38.2 39.5333 38.2 33.8C38.2 27.1333 39.9333 20.7333 43.4 14.6C46.8667 8.46666 52.4 3.59999 60 -9.53674e-06L68.4 7.8C62.9333 9.66666 58.5333 12.5333 55.2 16.4C51.8667 20.1333 49.7333 24.0667 48.8 28.2L49.6 28.6C50.1333 28.2 50.8 27.8667 51.6 27.6C52.4 27.3333 53.6 27.2 55.2 27.2C57.6 27.2 60 28.2667 62.4 30.4C64.9333 32.4 66.2 35.5333 66.2 39.8C66.2 43.4 64.9333 46.5333 62.4 49.2C59.8667 51.8667 56.8 53.2 53.2 53.2Z" fill="#EF7E2D"/>
</svg>
