<svg xmlns="http://www.w3.org/2000/svg" viewBox="0 0 152.03 157.74"><defs><style>.cls-1{fill:#231f20;}</style></defs><g id="Layer_2" data-name="Layer 2"><g id="Layer_1-2" data-name="Layer 1"><path class="cls-1" d="M6,57.8a73,73,0,0,1,12.51-24,89.28,89.28,0,0,0,19.78,8.35A124.06,124.06,0,0,0,35,57.8h5.8a119.84,119.84,0,0,1,3-14.17,137.71,137.71,0,0,0,29.31,3.74V57.8h5.75V47.39a139.2,139.2,0,0,0,29.38-3.5,115.91,115.91,0,0,1,3,13.91H117a126.61,126.61,0,0,0-3.19-15.35,91.82,91.82,0,0,0,20.07-8.19A73.06,73.06,0,0,1,146,57.8h6a78.86,78.86,0,0,0-152,0Zm124.17-28a87.39,87.39,0,0,1-18,7.19,92,92,0,0,0-5.53-13.17A56.87,56.87,0,0,0,95.23,8.32,73.24,73.24,0,0,1,130.17,29.78ZM78.89,6c8.42,1.33,16.36,8.47,22.63,20.47a85.81,85.81,0,0,1,5,11.94,134,134,0,0,1-27.68,3.25ZM73.14,6V41.63a132.17,132.17,0,0,1-27.59-3.49,86.11,86.11,0,0,1,5-11.68C56.78,14.46,64.73,7.32,73.14,6ZM56.8,8.32A57.08,57.08,0,0,0,45.42,23.8,92.65,92.65,0,0,0,40,36.66a85.65,85.65,0,0,1-17.71-7.33A73.34,73.34,0,0,1,56.8,8.32Z"/><path class="cls-1" d="M146.07,99.86a73.13,73.13,0,0,1-12.19,23.65,93.14,93.14,0,0,0-20.06-8.18A126.68,126.68,0,0,0,117,99.86h-5.8a120.1,120.1,0,0,1-3,14,139.18,139.18,0,0,0-29.37-3.5V99.86H73.14v10.56a137.44,137.44,0,0,0-29.29,3.74,119.62,119.62,0,0,1-3.05-14.3H35a127,127,0,0,0,3.31,15.79A90.07,90.07,0,0,0,18.53,124,73.23,73.23,0,0,1,6,99.86H0a78.86,78.86,0,0,0,152,0ZM22.31,128.44A85.54,85.54,0,0,1,40,121.13a91.25,91.25,0,0,0,5.41,12.81A56.92,56.92,0,0,0,56.8,149.42,73.19,73.19,0,0,1,22.31,128.44Zm50.83,23.31c-8.41-1.33-16.36-8.47-22.63-20.47a85.54,85.54,0,0,1-4.95-11.64,132.75,132.75,0,0,1,27.58-3.48Zm5.75,0V116.14a133.73,133.73,0,0,1,27.66,3.25,84.42,84.42,0,0,1-5,11.89C95.25,143.28,87.31,150.42,78.89,151.75Zm16.34-2.33a56.72,56.72,0,0,0,11.38-15.48,91.77,91.77,0,0,0,5.52-13.12,88,88,0,0,1,18,7.17A73.15,73.15,0,0,1,95.23,149.42Z"/><path class="cls-1" d="M21,92.91H11.64l-9.2-29h9L16.68,87l5.77-23.11H30l5.86,23.06,5.29-23.06h8.62L40.53,92.91H31.46L27.68,78.82l-1.45-7.08h-.1l-1.4,7.08Z"/><path class="cls-1" d="M71.25,92.91H61.89l-9.2-29h9L66.93,87,72.7,63.86h7.56l5.87,23.06,5.28-23.06H100L90.78,92.91H81.71L77.94,78.82l-1.46-7.08h-.1L75,78.82Z"/><path class="cls-1" d="M121.5,92.91h-9.36l-9.2-29h9L117.18,87,123,63.86h7.56l5.87,23.06,5.28-23.06h8.62L141,92.91H132l-3.78-14.09-1.46-7.08h-.1l-1.4,7.08Z"/></g></g></svg>